<?xml version="1.0" encoding="UTF-8" standalone="no"?>
<!-- Created with Inkscape (http://www.inkscape.org/) -->

<svg
   version="1.1"
   id="svg475"
   width="1066.6667"
   height="1066.6667"
   viewBox="0 0 1066.6667 1066.6667"
   sodipodi:docname="ancient-pyramids-pdv.svg"
   inkscape:version="1.2 (dc2aedaf03, 2022-05-15)"
   xmlns:inkscape="http://www.inkscape.org/namespaces/inkscape"
   xmlns:sodipodi="http://sodipodi.sourceforge.net/DTD/sodipodi-0.dtd"
   xmlns="http://www.w3.org/2000/svg"
   xmlns:svg="http://www.w3.org/2000/svg">
  <defs
     id="defs479">
    <clipPath
       clipPathUnits="userSpaceOnUse"
       id="clipPath491">
      <path
         d="M 0,800 H 800 V 0 H 0 Z"
         id="path489" />
    </clipPath>
  </defs>
  <sodipodi:namedview
     id="namedview477"
     pagecolor="#ffffff"
     bordercolor="#000000"
     borderopacity="0.25"
     inkscape:showpageshadow="2"
     inkscape:pageopacity="0.0"
     inkscape:pagecheckerboard="0"
     inkscape:deskcolor="#d1d1d1"
     showgrid="false"
     inkscape:zoom="0.7846874"
     inkscape:cx="533.3334"
     inkscape:cy="533.97059"
     inkscape:window-width="1920"
     inkscape:window-height="1017"
     inkscape:window-x="-8"
     inkscape:window-y="-8"
     inkscape:window-maximized="1"
     inkscape:current-layer="g483">
    <inkscape:page
       x="0"
       y="0"
       id="page481"
       width="1066.6667"
       height="1066.6667" />
  </sodipodi:namedview>
  <g
     id="g483"
     inkscape:groupmode="layer"
     inkscape:label="Page 1"
     transform="matrix(1.3333333,0,0,-1.3333333,0,1066.6667)">
    <g
       id="g485">
      <g
         id="g487"
         clip-path="url(#clipPath491)">
        <g
           id="g493"
           transform="translate(400.5146,231.1465)">
          <path
             d="M 0,0 C 135.896,0 246.733,110.835 246.733,246.732 246.733,382.628 135.896,493.465 0,493.465 -135.896,493.465 -246.732,382.628 -246.732,246.732 -246.732,110.835 -135.896,0 0,0"
             style="fill:#ff6600;fill-opacity:1;fill-rule:evenodd;stroke:none"
             id="path495" />
        </g>
        <g
           id="g497"
           transform="translate(400.6543,104.2949)">
          <path
             d="M 0,0 V 0 L 309.683,97.797 82.254,354.121 -0.14,370.981 Z"
             style="fill:#f7ad00;fill-opacity:1;fill-rule:evenodd;stroke:none"
             id="path499" />
        </g>
        <g
           id="g501"
           transform="translate(459.0293,463.1421)">
          <path
             d="M 0,0 147.075,-293.966 189.407,-319.13 10.875,-0.256 Z"
             style="fill:#f7ad00;fill-opacity:1;fill-rule:evenodd;stroke:none"
             id="path503" />
        </g>
        <g
           id="g505"
           transform="translate(554.168,165.543)">
          <path
             d="M 0,0 H 8.028 L 62.311,18.363 H 52.86 Z M -7.654,19.68 43.852,36.488 H 52.86 L 0,19.68 Z m -7.315,18.716 50.216,15.329 h 8.605 L -7.654,38.396 Z m -7.004,17.844 48.984,13.916 h 8.236 L -14.969,56.24 Z m 0,17.047 h -6.718 l 47.8,12.565 h 7.902 z m -13.176,16.475 46.667,11.113 h 7.591 l -47.8,-11.273 z m -6.217,15.484 45.577,10.033 h 7.307 l -46.667,-10.033 z m -5.994,15.027 44.528,8.839 h 7.043 l -45.577,-8.839 z m -5.787,14.454 43.517,7.692 h 6.798 l -44.528,-7.692 z m -5.594,13.921 42.54,6.588 h 6.571 l -43.517,-6.588 z m -5.414,13.428 41.595,5.519 h 6.359 l -42.54,-5.519 z m -5.246,12.969 40.681,4.486 h 6.16 l -41.595,-4.975 z m 34.708,16.025 h 5.973 l -40.681,-3.489 h -5.092 z m -5.798,11.167 h 5.798 l -39.8,-2.523 h -4.974 z m -5.635,10.818 h 5.635 l -38.944,-1.585 h -4.803 z"
             style="fill:#ffcc00;fill-opacity:1;fill-rule:evenodd;stroke:none"
             id="path507" />
        </g>
        <g
           id="g509"
           transform="translate(562.1963,144.6465)">
          <path
             d="M 0,0 V 20.896 L 54.283,39.26 V 18.363 Z M 44.832,39.26 V 57.385 L -8.028,40.576 v -19.68 z m -60.515,1.316 V 59.293 L 35.824,74.621 V 57.385 Z m -7.314,18.717 50.216,15.328 v 16.432 l -50.216,-13.916 0.012,-17.33 z m -7.004,34.891 48.983,12.564 V 91.053 L -30.001,77.137 Z m -6.719,16.314 V 94.184 l 47.801,12.564 v 15.023 z m -6.458,0.16 v 15.485 L 3.49,136.176 v -14.405 z m -6.217,15.485 45.578,10.033 v 13.833 l -45.578,-8.839 z m -5.994,29.48 44.529,7.692 v -13.306 l -44.529,-8.839 z m -5.786,0 43.517,7.692 v 12.818 l -43.517,-6.588 z m -5.595,13.922 v 13.428 l 42.541,5.518 v -12.358 z"
             style="fill:#ffb300;fill-opacity:1;fill-rule:evenodd;stroke:none"
             id="path511" />
        </g>
        <g
           id="g513"
           transform="translate(490.0127,340.5879)">
          <path
             d="M 0,0 41.596,4.486 V -7.45 L 0,-12.969 Z"
             style="fill:#ffb300;fill-opacity:1;fill-rule:evenodd;stroke:none"
             id="path515" />
        </g>
        <g
           id="g517"
           transform="translate(525.4482,345.0742)">
          <path
             d="M 0,0 V 11.539 L -40.682,8.05 V -4.486 Z"
             style="fill:#ffb300;fill-opacity:1;fill-rule:evenodd;stroke:none"
             id="path519" />
        </g>
        <g
           id="g521"
           transform="translate(479.6748,353.124)">
          <path
             d="m 0,0 v 12.133 l 39.8,2.523 V 3.489 Z"
             style="fill:#ffb300;fill-opacity:1;fill-rule:evenodd;stroke:none"
             id="path523" />
        </g>
        <g
           id="g525"
           transform="translate(513.6768,378.5977)">
          <path
             d="m 0,0 v -10.817 l -38.976,-2.524 0.033,11.756 z"
             style="fill:#ffb300;fill-opacity:1;fill-rule:evenodd;stroke:none"
             id="path527" />
        </g>
        <g
           id="g529"
           transform="translate(508.042,389.0859)">
          <path
             d="M 0,0 -38.112,-0.677 V -12.073 L 0,-10.488 Z"
             style="fill:#ffb300;fill-opacity:1;fill-rule:evenodd;stroke:none"
             id="path531" />
        </g>
        <g
           id="g533"
           transform="translate(502.5615,389.0859)">
          <path
             d="m 0,0 v 10.179 l -37.304,0.206 V -0.677 Z"
             style="fill:#ffb300;fill-opacity:1;fill-rule:evenodd;stroke:none"
             id="path535" />
        </g>
        <g
           id="g537"
           transform="translate(497.2266,409.1519)">
          <path
             d="M 0,0 -36.519,1.064 V -9.681 H 0 Z"
             style="fill:#ffb300;fill-opacity:1;fill-rule:evenodd;stroke:none"
             id="path539" />
        </g>
        <g
           id="g541"
           transform="translate(492.0322,418.7622)">
          <path
             d="M 0,0 -35.756,1.899 V -8.546 L 0,-9.459 Z"
             style="fill:#ffb300;fill-opacity:1;fill-rule:evenodd;stroke:none"
             id="path543" />
        </g>
        <g
           id="g545"
           transform="translate(486.9678,428.1108)">
          <path
             d="m 0,0 v -9.079 l -35.014,1.63 V 2.712 Z"
             style="fill:#ffb300;fill-opacity:1;fill-rule:evenodd;stroke:none"
             id="path547" />
        </g>
        <g
           id="g549"
           transform="translate(447.7383,440.7144)">
          <path
             d="m 0,0 34.289,-3.504 v -8.718 L 0,-9.892 Z"
             style="fill:#ffb300;fill-opacity:1;fill-rule:evenodd;stroke:none"
             id="path551" />
        </g>
        <g
           id="g553"
           transform="translate(443.6211,450.3511)">
          <path
             d="m 0,0 33.583,-4.276 v -8.372 L 0,-9.637 Z"
             style="fill:#ffb300;fill-opacity:1;fill-rule:evenodd;stroke:none"
             id="path555" />
        </g>
        <g
           id="g557"
           transform="translate(439.5986,459.7437)">
          <path
             d="m 0,0 32.895,-5.029 v -8.04 L 0,-9.383 Z"
             style="fill:#ffb300;fill-opacity:1;fill-rule:evenodd;stroke:none"
             id="path559" />
        </g>
        <g
           id="g561"
           transform="translate(467.8887,463.1421)">
          <path
             d="m 0,0 v -7.724 l -32.224,4.628 v 8.86 z"
             style="fill:#ffb300;fill-opacity:1;fill-rule:evenodd;stroke:none"
             id="path563" />
        </g>
        <g
           id="g565"
           transform="translate(423.6094,469.9673)">
          <path
             d="M 0,0 103.541,-325.725 145.873,-350.887 10.875,-0.255 Z"
             style="fill:#f7ad00;fill-opacity:1;fill-rule:evenodd;stroke:none"
             id="path567" />
        </g>
        <g
           id="g569"
           transform="translate(469.9043,462.8862)">
          <path
             d="m 0,0 178.532,-318.875 16.145,6.879 L 3.193,-1.063 Z m -35.42,6.826 3.191,-1.064 147.95,-342.691 -16.143,-6.877 z"
             style="fill:#ffd940;fill-opacity:1;fill-rule:evenodd;stroke:none"
             id="path571" />
        </g>
        <g
           id="g573"
           transform="translate(508.042,389.0859)">
          <path
             d="m 0,0 -38.112,-0.677 h -4.672 L -5.48,0 Z m -15.326,67.324 -0.133,-8.899 -11.922,2.027 -6.578,10.683 z M -1.728,53.409 -1.6,42.805 l -16.783,3.036 -7.41,12.033 z m 13.422,-25.588 0.033,9.901 -27.902,4.533 7.295,-11.841 z m -119.221,58.369 0.003,-10.043 26.149,-4.886 0.156,9.545 z m 0.004,-13.149 31.057,-5.763 0.027,-11.548 -31.08,5.115 z m 36.231,-33.499 -0.001,11.668 -36.224,5.885 0.005,-12.196 z m 5.224,-16.434 -41.439,5.038 -0.003,13.163 41.271,-5.761 z m -41.431,-14.533 47.581,-4.813 -0.015,15.01 -47.572,5.464 z m 0.002,-3.67 53.464,-4.642 0.005,-15.03 -53.462,3.288 z m 0.008,-20.618 59.877,-3.41 0.216,-16.511 -60.086,1.806 z m 0.007,-21.905 67.005,-1.691 0.015,-18.139 -67.013,-0.024 z m 0.01,-24.485 73.847,0.76 0.058,-17.791 -73.898,-2.775 z m 0.009,-24.485 81.745,3.742 0.189,-21.578 -81.924,-6.64 z m 0.011,-29.637 0.01,-25.283 90.173,11.1 0.004,22.135 z m 107.692,-69.261 -107.656,-24.448 -0.014,29.883 107.658,19.805 z m -107.67,10.791 -0.01,27.545 98.623,13.14 0.19,-23.584 z m 0.028,-74.256 117.537,32.34 -0.072,28.537 -117.479,-28.422 z m 0.014,-35.84 -0.01,28.59 126.529,36.896 -0.023,-25.539 z m 163.29,262.788 0.132,12.707 -42.748,3.713 9.201,-14.94 z m -22.621,-16.047 37.772,-1.028 -0.04,13.198 -46.871,2.67 z m 11.348,-18.427 41.682,0.2 -0.114,13.775 -50.966,1.284 z m 57.18,-17.265 -0.216,13.788 -54.479,-0.56 9.189,-14.918 z m 16.021,-18.057 -48.645,-4.553 -10.689,17.359 59.299,2.713 z m 17.481,-19.701 0.32,16.839 -63.991,-5.677 10.914,-17.721 z m 14.657,-16.52 -55.13,-9.986 -10.167,16.508 65.76,8.781 z m -42.562,-30.396 58.437,12.506 -0.303,16.713 -68.61,-12.205 z m 16.167,-26.252 -13.11,21.289 73.433,16.199 0.516,-19.66 z m 14.017,-22.76 64.705,20.434 -1.557,20.642 -74.981,-21.861 z M 40.757,-4.933 40.76,7.207 2.719,11.577 11.144,-2.104 Z m -14.873,16.764 -0.309,10.901 -32.521,4.54 8.03,-13.041 z"
             style="fill:#d49400;fill-opacity:1;fill-rule:evenodd;stroke:none"
             id="path575" />
        </g>
        <g
           id="g577"
           transform="translate(400.376,104.2949)">
          <path
             d="m 0,0 v 0 l -309.685,97.797 227.429,256.324 82.395,16.86 z"
             style="fill:#ffc233;fill-opacity:1;fill-rule:evenodd;stroke:none"
             id="path579" />
        </g>
        <g
           id="g581"
           transform="translate(341.999,463.1421)">
          <path
             d="M 0,0 -147.075,-293.966 -189.407,-319.13 -10.875,-0.256 Z"
             style="fill:#ffb917;fill-opacity:1;fill-rule:evenodd;stroke:none"
             id="path583" />
        </g>
        <g
           id="g585"
           transform="translate(246.8613,165.543)">
          <path
             d="m 0,0 h -8.029 l -54.283,18.363 h 9.452 z M 7.654,19.68 -43.853,36.488 H -52.86 L 0,19.68 Z m 7.315,18.716 -50.217,15.329 h -8.605 L 7.654,38.396 Z m 7.003,17.844 -48.983,13.916 h -8.237 L 14.969,56.24 Z m 0,17.047 h 6.719 L -19.11,85.852 h -7.901 z m 13.176,16.475 -46.666,11.113 H -19.11 L 28.691,89.602 Z m 6.218,15.484 -45.577,10.033 h -7.307 l 46.666,-10.033 z m 5.993,15.027 -44.527,8.839 h -7.043 l 45.577,-8.839 z m 5.787,14.454 -43.516,7.692 H 2.832 l 44.527,-7.692 z m 5.594,13.921 -42.539,6.588 H 9.63 l 43.516,-6.588 z m 5.415,13.428 -41.596,5.519 h -6.358 l 42.539,-5.519 z m 5.247,12.969 -40.684,4.486 h -6.159 l 41.596,-4.975 z m -34.71,16.025 h -5.974 l 40.684,-3.489 h 5.09 z m 5.799,11.167 h -5.799 l 39.8,-2.523 h 4.975 z m 5.635,10.818 h -5.635 l 38.943,-1.585 h 4.803 z"
             style="fill:#ffe26e;fill-opacity:1;fill-rule:evenodd;stroke:none"
             id="path587" />
        </g>
        <g
           id="g589"
           transform="translate(238.8325,144.6465)">
          <path
             d="M 0,0 V 20.896 L -54.283,39.26 V 18.363 Z M -44.831,39.26 V 57.385 L 8.029,40.576 v -19.68 z m 60.514,1.316 V 59.293 L -35.824,74.621 V 57.385 Z m 7.315,18.717 -50.217,15.328 V 91.053 L 22.998,77.137 22.986,59.807 Z m 7.003,34.891 -48.983,12.564 V 91.053 L 30.001,77.137 Z m 6.719,16.314 V 94.184 l -47.801,12.564 v 15.023 z m 6.457,0.16 v 15.485 l -46.666,10.033 v -14.405 z m 6.218,15.485 -45.577,10.033 v 13.833 l 45.577,-8.839 z m 5.993,29.48 -44.528,7.692 v -13.306 l 44.528,-8.839 z m 5.787,0 -43.516,7.692 v 12.818 l 43.516,-6.588 z m 5.594,13.922 v 13.428 l -42.539,5.518 v -12.358 z"
             style="fill:#ffc336;fill-opacity:1;fill-rule:evenodd;stroke:none"
             id="path591" />
        </g>
        <g
           id="g593"
           transform="translate(311.0166,340.5879)">
          <path
             d="M 0,0 -41.596,4.486 V -7.45 L 0,-12.969 Z"
             style="fill:#ffc336;fill-opacity:1;fill-rule:evenodd;stroke:none"
             id="path595" />
        </g>
        <g
           id="g597"
           transform="translate(275.5796,345.0742)">
          <path
             d="M 0,0 V 11.539 L 40.684,8.05 V -4.486 Z"
             style="fill:#ffc336;fill-opacity:1;fill-rule:evenodd;stroke:none"
             id="path599" />
        </g>
        <g
           id="g601"
           transform="translate(321.353,353.124)">
          <path
             d="m 0,0 v 12.133 l -39.8,2.523 V 3.489 Z"
             style="fill:#ffc336;fill-opacity:1;fill-rule:evenodd;stroke:none"
             id="path603" />
        </g>
        <g
           id="g605"
           transform="translate(287.3521,378.5977)">
          <path
             d="m 0,0 v -10.817 l 38.977,-2.524 -0.034,11.756 z"
             style="fill:#ffc336;fill-opacity:1;fill-rule:evenodd;stroke:none"
             id="path607" />
        </g>
        <g
           id="g609"
           transform="translate(292.9873,389.0859)">
          <path
             d="M 0,0 38.111,-0.677 V -12.073 L 0,-10.488 Z"
             style="fill:#ffc336;fill-opacity:1;fill-rule:evenodd;stroke:none"
             id="path611" />
        </g>
        <g
           id="g613"
           transform="translate(298.4678,389.0859)">
          <path
             d="m 0,0 v 10.179 l 37.304,0.206 V -0.677 Z"
             style="fill:#ffc336;fill-opacity:1;fill-rule:evenodd;stroke:none"
             id="path615" />
        </g>
        <g
           id="g617"
           transform="translate(303.8018,409.1519)">
          <path
             d="M 0,0 36.518,1.064 V -9.681 H 0 Z"
             style="fill:#ffc336;fill-opacity:1;fill-rule:evenodd;stroke:none"
             id="path619" />
        </g>
        <g
           id="g621"
           transform="translate(308.9966,418.7622)">
          <path
             d="M 0,0 35.755,1.899 V -8.546 L 0,-9.459 Z"
             style="fill:#ffc336;fill-opacity:1;fill-rule:evenodd;stroke:none"
             id="path623" />
        </g>
        <g
           id="g625"
           transform="translate(314.0615,428.1108)">
          <path
             d="m 0,0 v -9.079 l 35.013,1.63 V 2.712 Z"
             style="fill:#ffc336;fill-opacity:1;fill-rule:evenodd;stroke:none"
             id="path627" />
        </g>
        <g
           id="g629"
           transform="translate(353.291,440.7144)">
          <path
             d="m 0,0 -34.289,-3.504 v -8.718 L 0,-9.892 Z"
             style="fill:#ffc336;fill-opacity:1;fill-rule:evenodd;stroke:none"
             id="path631" />
        </g>
        <g
           id="g633"
           transform="translate(357.4082,450.3511)">
          <path
             d="m 0,0 -33.583,-4.276 v -8.372 L 0,-9.637 Z"
             style="fill:#ffc336;fill-opacity:1;fill-rule:evenodd;stroke:none"
             id="path635" />
        </g>
        <g
           id="g637"
           transform="translate(361.4297,459.7437)">
          <path
             d="m 0,0 -32.894,-5.029 v -8.04 L 0,-9.383 Z"
             style="fill:#ffc336;fill-opacity:1;fill-rule:evenodd;stroke:none"
             id="path639" />
        </g>
        <g
           id="g641"
           transform="translate(333.1401,463.1421)">
          <path
             d="m 0,0 v -7.724 l 32.223,4.628 v 8.86 z"
             style="fill:#ffc336;fill-opacity:1;fill-rule:evenodd;stroke:none"
             id="path643" />
        </g>
        <g
           id="g645"
           transform="translate(377.4199,469.9673)">
          <path
             d="m 0,0 -103.542,-325.725 -42.332,-25.162 134.999,350.632 z"
             style="fill:#ffb917;fill-opacity:1;fill-rule:evenodd;stroke:none"
             id="path647" />
        </g>
        <g
           id="g649"
           transform="translate(331.124,462.8862)">
          <path
             d="m 0,0 -178.532,-318.875 -16.143,6.879 191.483,310.933 z m 35.421,6.826 -3.193,-1.064 -147.95,-342.691 16.144,-6.877 z"
             style="fill:#ffe787;fill-opacity:1;fill-rule:evenodd;stroke:none"
             id="path651" />
        </g>
        <g
           id="g653"
           transform="translate(292.9873,389.0859)">
          <path
             d="m 0,0 38.111,-0.677 h 4.673 L 5.48,0 Z m 15.326,67.324 0.131,-8.899 11.922,2.027 6.58,10.683 z M 1.727,53.409 1.599,42.805 l 16.783,3.036 7.41,12.033 z M -11.696,27.821 -11.728,37.722 16.173,42.255 8.88,30.414 Z M 107.527,86.19 107.523,76.147 81.375,71.261 81.219,80.806 Z M 107.522,73.041 76.465,67.278 76.437,55.73 l 31.081,5.115 z m -36.231,-33.499 0.001,11.668 36.224,5.885 -0.003,-12.196 z m -5.223,-16.434 41.438,5.038 0.005,13.163 -41.273,-5.761 z m 41.43,-14.533 -47.581,-4.813 0.016,15.01 47.571,5.464 z m -0.002,-3.67 -53.464,-4.642 -0.004,-15.03 53.462,3.288 z m -0.006,-20.618 -59.878,-3.41 -0.217,-16.511 60.086,1.806 z m -0.01,-21.905 -67.005,-1.691 -0.014,-18.139 67.013,-0.024 z m -0.008,-24.485 -73.847,0.76 -0.058,-17.791 73.897,-2.775 z m -0.01,-24.485 -81.745,3.742 -0.189,-21.578 81.925,-6.64 z m -0.011,-29.637 -0.01,-25.283 -90.174,11.1 -0.002,22.135 z m -107.692,-69.261 107.657,-24.448 0.014,29.883 -107.658,19.805 z m 107.67,10.791 0.01,27.545 -98.622,13.14 -0.191,-23.584 z m -0.028,-74.256 -117.537,32.34 0.072,28.537 117.48,-28.422 z m -0.012,-35.84 0.01,28.59 -126.53,36.896 0.022,-25.539 z m -163.291,262.788 -0.134,12.707 42.749,3.713 -9.201,-14.94 z m 22.621,-16.047 -37.773,-1.028 0.041,13.198 46.87,2.67 z m -11.348,-18.427 -41.683,0.2 0.114,13.775 50.967,1.284 z m -57.181,-17.265 0.217,13.788 54.478,-0.56 -9.187,-14.918 z m -16.021,-18.057 48.645,-4.553 10.69,17.359 -59.299,2.713 z m -17.48,-19.701 -0.319,16.839 63.99,-5.677 -10.914,-17.721 z m -14.658,-16.52 55.131,-9.986 10.167,16.508 -65.761,8.781 z m 42.561,-30.396 -58.435,12.506 0.303,16.713 68.61,-12.205 z m -16.165,-26.252 13.11,21.289 -73.433,16.199 -0.517,-19.66 z m -14.018,-22.76 -64.705,20.434 1.557,20.642 74.981,-21.861 z m 96.833,202.495 -0.003,12.14 38.041,4.37 -8.425,-13.681 z m 14.874,16.764 0.308,10.901 32.521,4.54 -8.03,-13.041 z"
             style="fill:#f7ad00;fill-opacity:1;fill-rule:evenodd;stroke:none"
             id="path655" />
        </g>
      </g>
    </g>
  </g>
</svg>
